# xmcd
#
# Track frame offsets:
# 150
# 5675
# 22680
# 43490
# 62404
# 84235
#
# Disc length: 1309 seconds
#
# Revision: 1
# Processed by: cddbd v1.4PL0 Copyright (c) Steve Scherf et al.
# Submitted via: Easy CD Ripper 1.45
#
DISCID=3c051b06
DTITLE=Cole Slaw - Cole Slaw
DYEAR=20000
DGENRE=Blues
TTITLE0=Cole Slaw
TTITLE1=Cole Slaw - I Don't Know
TTITLE2=Cole Slaw - Angel From Montgomery
TTITLE3=Cole Slaw - Medium Rotary
TTITLE4=Cole Slaw - On A Clear Day
TTITLE5=Cole Slaw - Cole Slaw
EXTD=
EXTT0=
EXTT1=
EXTT2=
EXTT3=
EXTT4=
EXTT5=
PLAYORDER=
